# xmcd
#
# Track frame offsets:
#	150
#	11850
#	31179
#	45157
#	59046
#	77371
#	94077
#	105771
#	124421
#	138375
#	152206
#	170405
#
# Disc length: 2496
#
# Revision: 1
# Processed by: cddbd v1.5.2PL0 Copyright (c) Steve Scherf et al.
# Submitted via: kJams Pro (development) 1.0patch45.25
#
DISCID=8f09be0c
DTITLE=Dwight Yoakam - CB 20218
DYEAR=1990
DGENRE=Country
TTITLE0=Dwight Yoakam - Vocals - Crazy Little Thing Called Love
TTITLE1=Dwight Yoakam - Vocals - A Thousand Miles From Nowhere
TTITLE2=Dwight Yoakam - Vocals - Pocket Of A Clown
TTITLE3=Dwight Yoakam - Vocals - Try Not To Look So Pretty
TTITLE4=Dwight Yoakam - Vocals - Nothing
TTITLE5=Dwight Yoakam - Vocals - These Arms
TTITLE6=Dwight Yoakam - Crazy Little Thing Called Love
TTITLE7=Dwight Yoakam - A Thousand Miles From Nowhere
TTITLE8=Dwight Yoakam - Pocket Of A Clown
TTITLE9=Dwight Yoakam - Try Not To Look So Pretty
TTITLE10=Dwight Yoakam - Nothing
TTITLE11=Dwight Yoakam - These Arms
EXTD=
EXTT0=
EXTT1=
EXTT2=
EXTT3=
EXTT4=
EXTT5=
EXTT6=
EXTT7=
EXTT8=
EXTT9=
EXTT10=
EXTT11=
PLAYORDER=
